# xmcd
#
# Track frame offsets:
#	225
#	11262
#	18997
#	29790
#	42267
#	51332
#	63790
#	75747
#	85835
#	96590
#	111090
#	119790
#	129422
#	138567
#	146967
#	157532
#	169037
#	180570
#	190810
#	199795
#	208100
#
# Disc length: 2887 seconds
#
# Revision: 1
# Processed by: cddbd v1.5.1PL0 Copyright (c) Steve Scherf et al.
# Submitted via: audiograbber 1.83.01
#
DISCID=290b4415
DTITLE=Various Artist - Country Roots - 21 Old - Time Favorites
DYEAR=1997
DGENRE=Country
TTITLE0=Mac Wiseman - I'm Sitting On Top Of The World
TTITLE1=Red Smiley - Ain't Nobody Gonna Miss Me
TTITLE2=Raymond Fairchild - Whoa Mule
TTITLE3=Hylo Brown - Martins and The Coys
TTITLE4=Don Reno and Bill Harrell - Poor Ellen Smith
TTITLE5=Curly Fox - Long Lost John
TTITLE6=Lee Moore - The Cat Came Back
TTITLE7=Mac Martin - This Rambler's Ramblin'
TTITLE8=Vassar Clements - Drifting Back To Dreamland
TTITLE9=J. E. Mainer - Old And In The Way
TTITLE10=Clarence Jackson - Roadside Rag
TTITLE11=Jim Greer - Old Rebel Soldier
TTITLE12=Earl Taylor and Jim McCall - Long Journey Home
TTITLE13=James Wall - My Clinch Mountain Home
TTITLE14=Bucky Ryan - Goodbye Liza Jane
TTITLE15=Frosty Mountain Boys - Mama Likes Bluegrass Music
TTITLE16=Jim Eanes - Molly Darling
TTITLE17=Clarence "Tater" Tate - Snow Deer
TTITLE18=Ernie and Mack  - Uncle Pen
TTITLE19=Bobby Smith - County Fair
TTITLE20=Mac Wiseman - Wreck Of The Old '97
EXTD=
EXTT0=
EXTT1=
EXTT2=
EXTT3=
EXTT4=
EXTT5=
EXTT6=
EXTT7=
EXTT8=
EXTT9=
EXTT10=
EXTT11=
EXTT12=
EXTT13=
EXTT14=
EXTT15=
EXTT16=
EXTT17=
EXTT18=
EXTT19=
EXTT20=
PLAYORDER=
